<svg xmlns="http://www.w3.org/2000/svg" version="1.1" xmlns:xlink="http://www.w3.org/1999/xlink" xmlns:svgjs="http://svgjs.dev/svgjs" width="1500" height="806" viewBox="0 0 1500 806"><g transform="matrix(1,0,0,1,-0.9090909090909918,0.6486801559496485)"><svg viewBox="0 0 396 213" data-background-color="#dedede" preserveAspectRatio="xMidYMid meet" height="806" width="1500" xmlns="http://www.w3.org/2000/svg" xmlns:xlink="http://www.w3.org/1999/xlink"><g id="tight-bounds" transform="matrix(1,0,0,1,0.2400000000000091,-0.17142540101399106)"><svg viewBox="0 0 395.52 172.88202777836395" height="172.88202777836395" width="395.52"><g><svg viewBox="0 0 395.52 172.88202777836395" height="172.88202777836395" width="395.52"><g><svg viewBox="0 0 395.52 172.88202777836395" height="172.88202777836395" width="395.52"><g id="textblocktransform"><svg viewBox="0 0 395.52 172.88202777836395" height="172.88202777836395" width="395.52" id="textblock"><g><rect width="395.52" height="150.1603944509147" fill="none" stroke-width="8.962371322224001" stroke="#374151" data-fill-palette-color="none" data-stroke-palette-color="tertiary"></rect><rect width="395.52" height="63.182456351113295" y="150.1603944509147" fill="#374151" data-fill-palette-color="tertiary"></rect></g><g><svg viewBox="0 0 395.52 149.1603944509147" height="149.1603944509147" width="395.52"><g transform="matrix(1,0,0,1,23.461705032,23.461705032)"><svg width="348.596589936" viewBox="1 -35 154.79 45.4" height="102.23698438691471" data-palette-color="#ffffff"><path d="M14.15 0.1L13.45 0.1Q12.45 0.1 12-0.2 11.55-0.5 11.55-1L11.55-1 11.55-31.2 1.95-31.2Q1-31.2 1-32.7L1-32.7 1-33.5Q1-35 1.95-35L1.95-35 25.45-35Q26.45-35 26.45-33.5L26.45-33.5 26.45-32.7Q26.45-31.2 25.45-31.2L25.45-31.2 16.05-31.2 16.05-1Q16.05-0.5 15.6-0.2 15.15 0.1 14.15 0.1L14.15 0.1ZM30.65 0.1L30.45 0.1Q29.4 0.1 28.92-0.2 28.45-0.5 28.45-1L28.45-1 28.45-18.65Q28.45-20.7 28.32-22 28.2-23.3 28.07-24.05 27.95-24.8 27.95-25.1L27.95-25.1Q27.95-25.35 28.25-25.55 28.55-25.75 29-25.88 29.45-26 29.95-26.05 30.45-26.1 30.85-26.1L30.85-26.1Q31.3-26.1 31.57-25.78 31.85-25.45 32.07-24.7 32.3-23.95 32.5-22.7L32.5-22.7Q33.35-24 34.42-24.83 35.5-25.65 36.75-26.05 38-26.45 39.45-26.45L39.45-26.45Q40.3-26.45 40.72-26.05 41.15-25.65 41.15-24.85L41.15-24.85Q41.15-24.3 41.07-23.78 41-23.25 40.85-22.85 40.7-22.45 40.52-22.2 40.35-21.95 40.1-21.95L40.1-21.95Q39.75-21.95 39.22-22.15 38.7-22.35 37.55-22.35L37.55-22.35Q35.85-22.35 34.52-21.4 33.2-20.45 32.75-18.8L32.75-18.8 32.75-1Q32.75-0.5 32.25-0.2 31.75 0.1 30.65 0.1L30.65 0.1ZM52.25 0.3L52.25 0.3Q48.6 0.3 46.15-1.53 43.7-3.35 43.7-7.2L43.7-7.2Q43.7-9.75 44.55-11.5 45.4-13.25 47.32-14.3 49.25-15.35 52.42-15.83 55.6-16.3 60.2-16.3L60.2-16.3 60.2-18.65Q60.2-19.8 59.7-20.75 59.2-21.7 58.02-22.28 56.85-22.85 54.8-22.85L54.8-22.85Q52.55-22.85 50.82-22.35 49.1-21.85 48.02-21.35 46.95-20.85 46.6-20.85L46.6-20.85Q46.35-20.85 46.12-21.1 45.9-21.35 45.7-21.78 45.5-22.2 45.37-22.65 45.25-23.1 45.25-23.45L45.25-23.45Q45.25-23.85 46.1-24.35 46.95-24.85 48.37-25.33 49.8-25.8 51.52-26.13 53.25-26.45 55-26.45L55-26.45Q57.25-26.45 59.02-25.93 60.8-25.4 62-24.38 63.2-23.35 63.85-21.9 64.5-20.45 64.5-18.6L64.5-18.6 64.5-7.5Q64.5-5.45 64.62-4.15 64.75-2.85 64.87-2.13 65-1.4 65-1.05L65-1.05Q65-0.8 64.7-0.6 64.4-0.4 63.95-0.28 63.5-0.15 63-0.08 62.5 0 62.1 0L62.1 0Q61.65 0 61.4-0.33 61.15-0.65 60.95-1.43 60.75-2.2 60.5-3.45L60.5-3.45Q59.6-2.4 58.37-1.55 57.15-0.7 55.62-0.2 54.1 0.3 52.25 0.3ZM52.45-3.35L52.45-3.35Q54.25-3.35 55.62-3.85 57-4.35 58.12-5.13 59.25-5.9 60.2-6.8L60.2-6.8 60.2-12.7Q56.5-12.7 54.15-12.43 51.8-12.15 50.5-11.55 49.2-10.95 48.7-9.93 48.2-8.9 48.2-7.45L48.2-7.45Q48.2-5.45 49.27-4.4 50.35-3.35 52.45-3.35ZM80.54 0.1L78.64 0.1Q77.89 0.1 77.32-0.1 76.74-0.3 76.54-0.95L76.54-0.95 70.19-24.7Q70.14-24.85 70.09-25.05 70.04-25.25 70.04-25.4L70.04-25.4Q70.04-25.8 70.57-26.03 71.09-26.25 72.19-26.25L72.19-26.25 72.44-26.25Q73.19-26.25 73.77-26.08 74.34-25.9 74.44-25.45L74.44-25.45 79.69-3.25 79.89-3.25 85.04-25.45Q85.14-25.9 85.72-26.08 86.29-26.25 87.09-26.25L87.09-26.25 87.59-26.25Q88.34-26.25 88.92-26.08 89.49-25.9 89.59-25.4L89.59-25.4 94.79-3.25 94.99-3.25 100.24-25.45Q100.34-25.9 100.92-26.08 101.49-26.25 102.29-26.25L102.29-26.25 102.44-26.25Q103.44-26.25 103.87-26.03 104.29-25.8 104.29-25.4L104.29-25.4Q104.29-25.25 104.27-25.1 104.24-24.95 104.14-24.7L104.14-24.7 97.79-0.95Q97.59-0.3 97.02-0.1 96.44 0.1 95.69 0.1L95.69 0.1 93.84 0.1Q93.09 0.1 92.49-0.1 91.89-0.3 91.74-0.95L91.74-0.95 87.34-19.65 87.14-19.65 82.69-0.95Q82.54-0.3 81.94-0.1 81.34 0.1 80.54 0.1L80.54 0.1ZM116.34 0.3L116.34 0.3Q112.69 0.3 110.24-1.53 107.79-3.35 107.79-7.2L107.79-7.2Q107.79-9.75 108.64-11.5 109.49-13.25 111.42-14.3 113.34-15.35 116.52-15.83 119.69-16.3 124.29-16.3L124.29-16.3 124.29-18.65Q124.29-19.8 123.79-20.75 123.29-21.7 122.12-22.28 120.94-22.85 118.89-22.85L118.89-22.85Q116.64-22.85 114.92-22.35 113.19-21.85 112.12-21.35 111.04-20.85 110.69-20.85L110.69-20.85Q110.44-20.85 110.22-21.1 109.99-21.35 109.79-21.78 109.59-22.2 109.47-22.65 109.34-23.1 109.34-23.45L109.34-23.45Q109.34-23.85 110.19-24.35 111.04-24.85 112.47-25.33 113.89-25.8 115.62-26.13 117.34-26.45 119.09-26.45L119.09-26.45Q121.34-26.45 123.12-25.93 124.89-25.4 126.09-24.38 127.29-23.35 127.94-21.9 128.59-20.45 128.59-18.6L128.59-18.6 128.59-7.5Q128.59-5.45 128.72-4.15 128.84-2.85 128.97-2.13 129.09-1.4 129.09-1.05L129.09-1.05Q129.09-0.8 128.79-0.6 128.49-0.4 128.04-0.28 127.59-0.15 127.09-0.08 126.59 0 126.19 0L126.19 0Q125.74 0 125.49-0.33 125.24-0.65 125.04-1.43 124.84-2.2 124.59-3.45L124.59-3.45Q123.69-2.4 122.47-1.55 121.24-0.7 119.72-0.2 118.19 0.3 116.34 0.3ZM116.54-3.35L116.54-3.35Q118.34-3.35 119.72-3.85 121.09-4.35 122.22-5.13 123.34-5.9 124.29-6.8L124.29-6.8 124.29-12.7Q120.59-12.7 118.24-12.43 115.89-12.15 114.59-11.55 113.29-10.95 112.79-9.93 112.29-8.9 112.29-7.45L112.29-7.45Q112.29-5.45 113.37-4.4 114.44-3.35 116.54-3.35ZM140.34 10.4L139.94 10.4Q139.14 10.4 138.71 10.18 138.29 9.95 138.29 9.6L138.29 9.6Q138.29 9.5 138.31 9.38 138.34 9.25 138.54 8.75L138.54 8.75 143.44-3 143.04 0.25 133.79-24.75Q133.74-24.85 133.69-25.05 133.64-25.25 133.64-25.4L133.64-25.4Q133.64-25.8 134.16-26.03 134.69-26.25 135.79-26.25L135.79-26.25 136.04-26.25Q136.79-26.25 137.34-26.08 137.89-25.9 138.04-25.45L138.04-25.45 144.69-5.95 144.89-5.95 151.74-25.45Q151.89-25.9 152.44-26.08 152.99-26.25 153.79-26.25L153.79-26.25 153.94-26.25Q154.94-26.25 155.36-26.03 155.79-25.8 155.79-25.4L155.79-25.4Q155.79-25.25 155.76-25.1 155.74-24.95 155.64-24.7L155.64-24.7 142.69 9.35Q142.49 9.9 141.86 10.15 141.24 10.4 140.34 10.4L140.34 10.4Z" opacity="1" transform="matrix(1,0,0,1,0,0)" fill="#ffffff" class="wordmark-text-0" data-fill-palette-color="primary" id="text-0"></path></svg></g></svg></g><g transform="matrix(1,0,0,1,75.54432,149.1603944509147)"><svg viewBox="0 0 244.43135999999998 23.721633327449247" height="23.721633327449247" width="244.43135999999998"><g transform="matrix(1,0,0,1,20,3.2)"><svg width="204.43135999999998" viewBox="1.05 -37.6 566.44 48" height="17.321633327449245" data-palette-color="#dedede"><path d="M7.75 10.4L7.35 10.4Q6.55 10.4 6.13 10.18 5.7 9.95 5.7 9.6L5.7 9.6Q5.7 9.5 5.73 9.38 5.75 9.25 5.95 8.75L5.95 8.75 10.85-3 10.45 0.25 1.2-24.75Q1.15-24.85 1.1-25.05 1.05-25.25 1.05-25.4L1.05-25.4Q1.05-25.8 1.58-26.03 2.1-26.25 3.2-26.25L3.2-26.25 3.45-26.25Q4.2-26.25 4.75-26.08 5.3-25.9 5.45-25.45L5.45-25.45 12.1-5.95 12.3-5.95 19.15-25.45Q19.3-25.9 19.85-26.08 20.4-26.25 21.2-26.25L21.2-26.25 21.35-26.25Q22.35-26.25 22.78-26.03 23.2-25.8 23.2-25.4L23.2-25.4Q23.2-25.25 23.18-25.1 23.15-24.95 23.05-24.7L23.05-24.7 10.1 9.35Q9.9 9.9 9.28 10.15 8.65 10.4 7.75 10.4L7.75 10.4ZM37.9 0.3L37.9 0.3Q32.25 0.3 29.27-3.1 26.3-6.5 26.3-12.95L26.3-12.95Q26.3-19.45 29.3-22.95 32.3-26.45 37.9-26.45L37.9-26.45Q43.4-26.45 46.32-22.98 49.25-19.5 49.25-12.95L49.25-12.95Q49.25-6.45 46.37-3.08 43.5 0.3 37.9 0.3ZM37.75-3.3L37.75-3.3Q41.4-3.3 43.12-5.68 44.85-8.05 44.85-13.05L44.85-13.05Q44.85-18.05 43.12-20.45 41.4-22.85 37.75-22.85L37.75-22.85Q34.1-22.85 32.4-20.48 30.7-18.1 30.7-13.05L30.7-13.05Q30.7-8.05 32.4-5.68 34.1-3.3 37.75-3.3ZM63.5 0.3L63.5 0.3Q59.8 0.3 57.67-1.83 55.55-3.95 55.55-7.65L55.55-7.65 55.55-25.15Q55.55-25.7 55.97-25.98 56.4-26.25 57.5-26.25L57.5-26.25 57.9-26.25Q59-26.25 59.42-25.98 59.85-25.7 59.85-25.15L59.85-25.15 59.85-8.05Q59.85-5.75 61.07-4.55 62.3-3.35 64.7-3.35L64.7-3.35Q65.95-3.35 67.12-3.78 68.3-4.2 69.32-5 70.34-5.8 71.05-6.85L71.05-6.85 71.05-25.15Q71.05-25.7 71.47-25.98 71.9-26.25 73-26.25L73-26.25 73.4-26.25Q74.5-26.25 74.92-25.98 75.34-25.7 75.34-25.15L75.34-25.15 75.34-7.5Q75.34-5.45 75.47-4.15 75.59-2.85 75.72-2.13 75.84-1.4 75.84-1.05L75.84-1.05Q75.84-0.8 75.55-0.6 75.25-0.4 74.8-0.28 74.34-0.15 73.84-0.08 73.34 0 72.95 0L72.95 0Q72.5 0 72.25-0.33 72-0.65 71.8-1.43 71.59-2.2 71.34-3.45L71.34-3.45Q70.34-2.3 69.05-1.45 67.75-0.6 66.34-0.15 64.95 0.3 63.5 0.3ZM86.54 0.1L86.34 0.1Q85.29 0.1 84.82-0.2 84.34-0.5 84.34-1L84.34-1 84.34-18.65Q84.34-20.7 84.22-22 84.09-23.3 83.97-24.05 83.84-24.8 83.84-25.1L83.84-25.1Q83.84-25.35 84.14-25.55 84.44-25.75 84.89-25.88 85.34-26 85.84-26.05 86.34-26.1 86.74-26.1L86.74-26.1Q87.19-26.1 87.47-25.78 87.74-25.45 87.97-24.7 88.19-23.95 88.39-22.7L88.39-22.7Q89.24-24 90.32-24.83 91.39-25.65 92.64-26.05 93.89-26.45 95.34-26.45L95.34-26.45Q96.19-26.45 96.62-26.05 97.04-25.65 97.04-24.85L97.04-24.85Q97.04-24.3 96.97-23.78 96.89-23.25 96.74-22.85 96.59-22.45 96.42-22.2 96.24-21.95 95.99-21.95L95.99-21.95Q95.64-21.95 95.12-22.15 94.59-22.35 93.44-22.35L93.44-22.35Q91.74-22.35 90.42-21.4 89.09-20.45 88.64-18.8L88.64-18.8 88.64-1Q88.64-0.5 88.14-0.2 87.64 0.1 86.54 0.1L86.54 0.1ZM122.34 0.3L122.34 0.3Q119.34 0.3 117.21-1.23 115.09-2.75 113.99-5.7 112.89-8.65 112.89-12.9L112.89-12.9Q112.89-16.85 114.01-19.9 115.14-22.95 117.24-24.7 119.34-26.45 122.24-26.45L122.24-26.45Q124.24-26.45 126.21-25.8 128.19-25.15 129.59-24.1L129.59-24.1 129.59-36.5Q129.59-37.05 130.09-37.33 130.59-37.6 131.69-37.6L131.69-37.6 131.89-37.6Q132.94-37.6 133.41-37.33 133.89-37.05 133.89-36.5L133.89-36.5 133.89-7.5Q133.89-5.45 134.01-4.15 134.14-2.85 134.26-2.13 134.39-1.4 134.39-1.05L134.39-1.05Q134.39-0.8 134.09-0.6 133.79-0.4 133.34-0.28 132.89-0.15 132.39-0.08 131.89 0 131.49 0L131.49 0Q131.04 0 130.79-0.33 130.54-0.65 130.34-1.43 130.14-2.2 129.89-3.45L129.89-3.45Q128.89-2.3 127.61-1.45 126.34-0.6 124.99-0.15 123.64 0.3 122.34 0.3ZM123.64-3.4L123.64-3.4Q125.24-3.4 126.86-4.33 128.49-5.25 129.59-6.85L129.59-6.85 129.59-20.05Q128.09-21.4 126.39-22.1 124.69-22.8 123.09-22.8L123.09-22.8Q120.34-22.8 118.81-20.23 117.29-17.65 117.29-12.9L117.29-12.9Q117.29-7.95 119.01-5.68 120.74-3.4 123.64-3.4ZM153.03 0.3L153.03 0.3Q147.28 0.3 144.21-2.7 141.13-5.7 141.13-12.95L141.13-12.95Q141.13-17.3 142.48-20.3 143.83-23.3 146.46-24.88 149.08-26.45 152.83-26.45L152.83-26.45Q156.23-26.45 158.51-24.98 160.78-23.5 161.91-20.6 163.03-17.7 163.03-13.5L163.03-13.5Q163.03-13.05 162.78-12.55 162.53-12.05 162.13-11.7 161.73-11.35 161.28-11.35L161.28-11.35 145.53-11.35Q145.63-7.2 147.48-5.25 149.33-3.3 153.13-3.3L153.13-3.3Q155.53-3.3 157.21-3.85 158.88-4.4 159.86-4.95 160.83-5.5 161.08-5.5L161.08-5.5Q161.44-5.5 161.71-5.08 161.98-4.65 162.19-4.1 162.38-3.55 162.38-3.15L162.38-3.15Q162.38-2.7 161.66-2.13 160.94-1.55 159.66-0.98 158.38-0.4 156.69-0.05 154.98 0.3 153.03 0.3ZM145.53-14.95L145.53-14.95 158.73-14.95Q158.73-18.9 157.08-20.88 155.44-22.85 152.38-22.85L152.38-22.85Q150.19-22.85 148.69-21.88 147.19-20.9 146.38-19.15 145.58-17.4 145.53-14.95ZM175.23 0.45L175.23 0.45Q173.53 0.45 172.08 0.13 170.63-0.2 169.56-0.7 168.48-1.2 167.88-1.73 167.28-2.25 167.28-2.7L167.28-2.7Q167.28-3 167.58-3.6 167.88-4.2 168.28-4.7 168.68-5.2 169.03-5.2L169.03-5.2Q169.23-5.2 169.93-4.7 170.63-4.2 171.91-3.7 173.18-3.2 174.93-3.2L174.93-3.2Q177.33-3.2 178.58-4.15 179.83-5.1 179.83-6.9L179.83-6.9Q179.83-8.25 179.18-9.08 178.53-9.9 177.41-10.45 176.28-11 174.83-11.45L174.83-11.45Q173.53-11.9 172.28-12.45 171.03-13 170.03-13.85 169.03-14.7 168.46-16 167.88-17.3 167.88-19.25L167.88-19.25Q167.88-21.35 168.96-23 170.03-24.65 171.91-25.58 173.78-26.5 176.18-26.5L176.18-26.5Q177.48-26.5 178.66-26.33 179.83-26.15 180.76-25.85 181.68-25.55 182.23-25.15 182.78-24.75 182.78-24.35L182.78-24.35Q182.78-23.95 182.51-23.3 182.23-22.65 181.88-22.15 181.53-21.65 181.18-21.65L181.18-21.65Q180.98-21.65 179.83-22.3 178.68-22.95 176.63-22.95L176.63-22.95Q174.78-22.95 173.48-22.08 172.18-21.2 172.18-19.6L172.18-19.6Q172.18-18.65 172.53-18 172.88-17.35 173.73-16.82 174.58-16.3 176.08-15.8L176.08-15.8Q177.78-15.25 179.23-14.55 180.68-13.85 181.78-12.88 182.88-11.9 183.48-10.55 184.08-9.2 184.08-7.35L184.08-7.35Q184.08-5.1 182.91-3.35 181.73-1.6 179.73-0.58 177.73 0.45 175.23 0.45ZM197.38 0.3L197.38 0.3Q195.38 0.3 194.05-0.45 192.73-1.2 192.05-2.68 191.38-4.15 191.38-6.3L191.38-6.3 191.38-22.55 188.88-22.55Q187.88-22.55 187.88-24.05L187.88-24.05 187.88-24.65Q187.88-26.15 188.88-26.15L188.88-26.15 191.38-26.15 191.98-31.4Q192.08-31.95 192.45-32.23 192.83-32.5 193.53-32.5L193.53-32.5 193.93-32.5Q194.93-32.5 195.3-32.23 195.68-31.95 195.68-31.4L195.68-31.4 195.68-26.15 199.93-26.15Q200.93-26.15 200.93-24.65L200.93-24.65 200.93-24.05Q200.93-22.55 199.93-22.55L199.93-22.55 195.68-22.55 195.68-6.3Q195.68-4.7 196.2-4.05 196.73-3.4 198.03-3.4L198.03-3.4Q199.18-3.4 199.68-3.65 200.18-3.9 200.53-3.9L200.53-3.9Q200.78-3.9 200.95-3.58 201.13-3.25 201.2-2.8 201.28-2.35 201.3-1.95 201.33-1.55 201.33-1.4L201.33-1.4Q201.33-0.9 200.66-0.5 199.98-0.1 199.05 0.1 198.13 0.3 197.38 0.3ZM209.93 0.1L209.53 0.1Q208.43 0.1 208-0.2 207.58-0.5 207.58-1L207.58-1 207.58-25.15Q207.58-25.7 208-25.98 208.43-26.25 209.53-26.25L209.53-26.25 209.93-26.25Q211.03-26.25 211.45-25.98 211.88-25.7 211.88-25.15L211.88-25.15 211.88-1Q211.88-0.5 211.45-0.2 211.03 0.1 209.93 0.1L209.93 0.1ZM209.73-29.75L209.73-29.75Q208.53-29.75 208.03-30.05 207.53-30.35 207.53-30.85L207.53-30.85 207.53-33.85Q207.53-34.35 208.03-34.65 208.53-34.95 209.73-34.95L209.73-34.95Q210.93-34.95 211.43-34.68 211.93-34.4 211.93-33.85L211.93-33.85 211.93-30.85Q211.93-30.35 211.43-30.05 210.93-29.75 209.73-29.75ZM223.17 0.1L222.77 0.1Q221.67 0.1 221.25-0.2 220.82-0.5 220.82-1L220.82-1 220.82-18.65Q220.82-20.7 220.7-22 220.57-23.3 220.45-24.05 220.32-24.8 220.32-25.1L220.32-25.1Q220.32-25.35 220.63-25.55 220.92-25.75 221.38-25.88 221.82-26 222.32-26.05 222.82-26.1 223.22-26.1L223.22-26.1Q223.67-26.1 223.92-25.78 224.17-25.45 224.38-24.73 224.57-24 224.82-22.7L224.82-22.7Q225.82-23.9 227.07-24.73 228.32-25.55 229.7-26 231.07-26.45 232.47-26.45L232.47-26.45Q235.02-26.45 236.85-25.48 238.67-24.5 239.65-22.7 240.63-20.9 240.63-18.35L240.63-18.35 240.63-1Q240.63-0.5 240.2-0.2 239.77 0.1 238.67 0.1L238.67 0.1 238.27 0.1Q237.17 0.1 236.75-0.2 236.32-0.5 236.32-1L236.32-1 236.32-17.95Q236.32-20.35 235.05-21.58 233.77-22.8 231.27-22.8L231.27-22.8Q230.07-22.8 228.92-22.38 227.77-21.95 226.8-21.18 225.82-20.4 225.13-19.3L225.13-19.3 225.13-1Q225.13-0.5 224.7-0.2 224.27 0.1 223.17 0.1L223.17 0.1ZM255.17 0.3L255.17 0.3Q251.52 0.3 249.07-1.53 246.62-3.35 246.62-7.2L246.62-7.2Q246.62-9.75 247.47-11.5 248.32-13.25 250.25-14.3 252.17-15.35 255.35-15.83 258.52-16.3 263.12-16.3L263.12-16.3 263.12-18.65Q263.12-19.8 262.62-20.75 262.12-21.7 260.95-22.28 259.77-22.85 257.72-22.85L257.72-22.85Q255.47-22.85 253.75-22.35 252.02-21.85 250.95-21.35 249.87-20.85 249.52-20.85L249.52-20.85Q249.27-20.85 249.05-21.1 248.82-21.35 248.62-21.78 248.42-22.2 248.3-22.65 248.17-23.1 248.17-23.45L248.17-23.45Q248.17-23.85 249.02-24.35 249.87-24.85 251.3-25.33 252.72-25.8 254.45-26.13 256.17-26.45 257.92-26.45L257.92-26.45Q260.17-26.45 261.95-25.93 263.72-25.4 264.92-24.38 266.12-23.35 266.77-21.9 267.42-20.45 267.42-18.6L267.42-18.6 267.42-7.5Q267.42-5.45 267.55-4.15 267.67-2.85 267.8-2.13 267.92-1.4 267.92-1.05L267.92-1.05Q267.92-0.8 267.62-0.6 267.32-0.4 266.87-0.28 266.42-0.15 265.92-0.08 265.42 0 265.02 0L265.02 0Q264.57 0 264.32-0.33 264.07-0.65 263.87-1.43 263.67-2.2 263.42-3.45L263.42-3.45Q262.52-2.4 261.3-1.55 260.07-0.7 258.55-0.2 257.02 0.3 255.17 0.3ZM255.37-3.35L255.37-3.35Q257.17-3.35 258.55-3.85 259.92-4.35 261.05-5.13 262.17-5.9 263.12-6.8L263.12-6.8 263.12-12.7Q259.42-12.7 257.07-12.43 254.72-12.15 253.42-11.55 252.12-10.95 251.62-9.93 251.12-8.9 251.12-7.45L251.12-7.45Q251.12-5.45 252.2-4.4 253.27-3.35 255.37-3.35ZM282.82 0.3L282.82 0.3Q280.82 0.3 279.5-0.45 278.17-1.2 277.5-2.68 276.82-4.15 276.82-6.3L276.82-6.3 276.82-22.55 274.32-22.55Q273.32-22.55 273.32-24.05L273.32-24.05 273.32-24.65Q273.32-26.15 274.32-26.15L274.32-26.15 276.82-26.15 277.42-31.4Q277.52-31.95 277.9-32.23 278.27-32.5 278.97-32.5L278.97-32.5 279.37-32.5Q280.37-32.5 280.75-32.23 281.12-31.95 281.12-31.4L281.12-31.4 281.12-26.15 285.37-26.15Q286.37-26.15 286.37-24.65L286.37-24.65 286.37-24.05Q286.37-22.55 285.37-22.55L285.37-22.55 281.12-22.55 281.12-6.3Q281.12-4.7 281.65-4.05 282.17-3.4 283.47-3.4L283.47-3.4Q284.62-3.4 285.12-3.65 285.62-3.9 285.97-3.9L285.97-3.9Q286.22-3.9 286.4-3.58 286.57-3.25 286.65-2.8 286.72-2.35 286.75-1.95 286.77-1.55 286.77-1.4L286.77-1.4Q286.77-0.9 286.1-0.5 285.42-0.1 284.5 0.1 283.57 0.3 282.82 0.3ZM295.37 0.1L294.97 0.1Q293.87 0.1 293.44-0.2 293.02-0.5 293.02-1L293.02-1 293.02-25.15Q293.02-25.7 293.44-25.98 293.87-26.25 294.97-26.25L294.97-26.25 295.37-26.25Q296.47-26.25 296.89-25.98 297.32-25.7 297.32-25.15L297.32-25.15 297.32-1Q297.32-0.5 296.89-0.2 296.47 0.1 295.37 0.1L295.37 0.1ZM295.17-29.75L295.17-29.75Q293.97-29.75 293.47-30.05 292.97-30.35 292.97-30.85L292.97-30.85 292.97-33.85Q292.97-34.35 293.47-34.65 293.97-34.95 295.17-34.95L295.17-34.95Q296.37-34.95 296.87-34.68 297.37-34.4 297.37-33.85L297.37-33.85 297.37-30.85Q297.37-30.35 296.87-30.05 296.37-29.75 295.17-29.75ZM316.12 0.3L316.12 0.3Q310.47 0.3 307.49-3.1 304.52-6.5 304.52-12.95L304.52-12.95Q304.52-19.45 307.52-22.95 310.52-26.45 316.12-26.45L316.12-26.45Q321.62-26.45 324.54-22.98 327.47-19.5 327.47-12.95L327.47-12.95Q327.47-6.45 324.59-3.08 321.72 0.3 316.12 0.3ZM315.97-3.3L315.97-3.3Q319.62-3.3 321.34-5.68 323.07-8.05 323.07-13.05L323.07-13.05Q323.07-18.05 321.34-20.45 319.62-22.85 315.97-22.85L315.97-22.85Q312.32-22.85 310.62-20.48 308.92-18.1 308.92-13.05L308.92-13.05Q308.92-8.05 310.62-5.68 312.32-3.3 315.97-3.3ZM337.06 0.1L336.66 0.1Q335.56 0.1 335.14-0.2 334.71-0.5 334.71-1L334.71-1 334.71-18.65Q334.71-20.7 334.59-22 334.46-23.3 334.34-24.05 334.21-24.8 334.21-25.1L334.21-25.1Q334.21-25.35 334.51-25.55 334.81-25.75 335.26-25.88 335.71-26 336.21-26.05 336.71-26.1 337.11-26.1L337.11-26.1Q337.56-26.1 337.81-25.78 338.06-25.45 338.26-24.73 338.46-24 338.71-22.7L338.71-22.7Q339.71-23.9 340.96-24.73 342.21-25.55 343.59-26 344.96-26.45 346.36-26.45L346.36-26.45Q348.91-26.45 350.74-25.48 352.56-24.5 353.54-22.7 354.51-20.9 354.51-18.35L354.51-18.35 354.51-1Q354.51-0.5 354.09-0.2 353.66 0.1 352.56 0.1L352.56 0.1 352.16 0.1Q351.06 0.1 350.64-0.2 350.21-0.5 350.21-1L350.21-1 350.21-17.95Q350.21-20.35 348.94-21.58 347.66-22.8 345.16-22.8L345.16-22.8Q343.96-22.8 342.81-22.38 341.66-21.95 340.69-21.18 339.71-20.4 339.01-19.3L339.01-19.3 339.01-1Q339.01-0.5 338.59-0.2 338.16 0.1 337.06 0.1L337.06 0.1ZM377.81 10.4L377.41 10.4Q376.61 10.4 376.18 10.18 375.76 9.95 375.76 9.6L375.76 9.6Q375.76 9.5 375.78 9.38 375.81 9.25 376.01 8.75L376.01 8.75 380.91-3 380.51 0.25 371.26-24.75Q371.21-24.85 371.16-25.05 371.11-25.25 371.11-25.4L371.11-25.4Q371.11-25.8 371.63-26.03 372.16-26.25 373.26-26.25L373.26-26.25 373.51-26.25Q374.26-26.25 374.81-26.08 375.36-25.9 375.51-25.45L375.51-25.45 382.16-5.95 382.36-5.95 389.21-25.45Q389.36-25.9 389.91-26.08 390.46-26.25 391.26-26.25L391.26-26.25 391.41-26.25Q392.41-26.25 392.83-26.03 393.26-25.8 393.26-25.4L393.26-25.4Q393.26-25.25 393.23-25.1 393.21-24.95 393.11-24.7L393.11-24.7 380.16 9.35Q379.96 9.9 379.33 10.15 378.71 10.4 377.81 10.4L377.81 10.4ZM407.96 0.3L407.96 0.3Q402.31 0.3 399.33-3.1 396.36-6.5 396.36-12.95L396.36-12.95Q396.36-19.45 399.36-22.95 402.36-26.45 407.96-26.45L407.96-26.45Q413.46-26.45 416.38-22.98 419.31-19.5 419.31-12.95L419.31-12.95Q419.31-6.45 416.43-3.08 413.56 0.3 407.96 0.3ZM407.81-3.3L407.81-3.3Q411.46-3.3 413.18-5.68 414.91-8.05 414.91-13.05L414.91-13.05Q414.91-18.05 413.18-20.45 411.46-22.85 407.81-22.85L407.81-22.85Q404.16-22.85 402.46-20.48 400.76-18.1 400.76-13.05L400.76-13.05Q400.76-8.05 402.46-5.68 404.16-3.3 407.81-3.3ZM433.55 0.3L433.55 0.3Q429.85 0.3 427.73-1.83 425.6-3.95 425.6-7.65L425.6-7.65 425.6-25.15Q425.6-25.7 426.03-25.98 426.45-26.25 427.55-26.25L427.55-26.25 427.95-26.25Q429.05-26.25 429.48-25.98 429.9-25.7 429.9-25.15L429.9-25.15 429.9-8.05Q429.9-5.75 431.13-4.55 432.35-3.35 434.75-3.35L434.75-3.35Q436-3.35 437.18-3.78 438.35-4.2 439.38-5 440.4-5.8 441.1-6.85L441.1-6.85 441.1-25.15Q441.1-25.7 441.53-25.98 441.95-26.25 443.05-26.25L443.05-26.25 443.45-26.25Q444.55-26.25 444.98-25.98 445.4-25.7 445.4-25.15L445.4-25.15 445.4-7.5Q445.4-5.45 445.53-4.15 445.65-2.85 445.78-2.13 445.9-1.4 445.9-1.05L445.9-1.05Q445.9-0.8 445.6-0.6 445.3-0.4 444.85-0.28 444.4-0.15 443.9-0.08 443.4 0 443 0L443 0Q442.55 0 442.3-0.33 442.05-0.65 441.85-1.43 441.65-2.2 441.4-3.45L441.4-3.45Q440.4-2.3 439.1-1.45 437.8-0.6 436.4-0.15 435 0.3 433.55 0.3ZM456.6 0.1L456.4 0.1Q455.35 0.1 454.88-0.2 454.4-0.5 454.4-1L454.4-1 454.4-18.65Q454.4-20.7 454.28-22 454.15-23.3 454.03-24.05 453.9-24.8 453.9-25.1L453.9-25.1Q453.9-25.35 454.2-25.55 454.5-25.75 454.95-25.88 455.4-26 455.9-26.05 456.4-26.1 456.8-26.1L456.8-26.1Q457.25-26.1 457.53-25.78 457.8-25.45 458.03-24.7 458.25-23.95 458.45-22.7L458.45-22.7Q459.3-24 460.38-24.83 461.45-25.65 462.7-26.05 463.95-26.45 465.4-26.45L465.4-26.45Q466.25-26.45 466.68-26.05 467.1-25.65 467.1-24.85L467.1-24.85Q467.1-24.3 467.03-23.78 466.95-23.25 466.8-22.85 466.65-22.45 466.48-22.2 466.3-21.95 466.05-21.95L466.05-21.95Q465.7-21.95 465.18-22.15 464.65-22.35 463.5-22.35L463.5-22.35Q461.8-22.35 460.48-21.4 459.15-20.45 458.7-18.8L458.7-18.8 458.7-1Q458.7-0.5 458.2-0.2 457.7 0.1 456.6 0.1L456.6 0.1ZM492.25 0.1L490.35 0.1Q489.6 0.1 489.02-0.1 488.45-0.3 488.25-0.95L488.25-0.95 481.9-24.7Q481.85-24.85 481.8-25.05 481.75-25.25 481.75-25.4L481.75-25.4Q481.75-25.8 482.27-26.03 482.8-26.25 483.9-26.25L483.9-26.25 484.15-26.25Q484.9-26.25 485.47-26.08 486.05-25.9 486.15-25.45L486.15-25.45 491.4-3.25 491.6-3.25 496.75-25.45Q496.85-25.9 497.42-26.08 498-26.25 498.8-26.25L498.8-26.25 499.3-26.25Q500.05-26.25 500.62-26.08 501.2-25.9 501.3-25.4L501.3-25.4 506.5-3.25 506.7-3.25 511.95-25.45Q512.05-25.9 512.62-26.08 513.2-26.25 514-26.25L514-26.25 514.15-26.25Q515.15-26.25 515.57-26.03 516-25.8 516-25.4L516-25.4Q516-25.25 515.97-25.1 515.95-24.95 515.85-24.7L515.85-24.7 509.5-0.95Q509.3-0.3 508.72-0.1 508.15 0.1 507.4 0.1L507.4 0.1 505.55 0.1Q504.8 0.1 504.2-0.1 503.6-0.3 503.45-0.95L503.45-0.95 499.05-19.65 498.85-19.65 494.4-0.95Q494.25-0.3 493.65-0.1 493.05 0.1 492.25 0.1L492.25 0.1ZM528.04 0.3L528.04 0.3Q524.39 0.3 521.94-1.53 519.49-3.35 519.49-7.2L519.49-7.2Q519.49-9.75 520.34-11.5 521.19-13.25 523.12-14.3 525.04-15.35 528.22-15.83 531.39-16.3 535.99-16.3L535.99-16.3 535.99-18.65Q535.99-19.8 535.49-20.75 534.99-21.7 533.82-22.28 532.64-22.85 530.59-22.85L530.59-22.85Q528.34-22.85 526.62-22.35 524.89-21.85 523.82-21.35 522.74-20.85 522.39-20.85L522.39-20.85Q522.14-20.85 521.92-21.1 521.69-21.35 521.49-21.78 521.29-22.2 521.17-22.65 521.04-23.1 521.04-23.45L521.04-23.45Q521.04-23.85 521.89-24.35 522.74-24.85 524.17-25.33 525.59-25.8 527.32-26.13 529.04-26.45 530.79-26.45L530.79-26.45Q533.04-26.45 534.82-25.93 536.59-25.4 537.79-24.38 538.99-23.35 539.64-21.9 540.29-20.45 540.29-18.6L540.29-18.6 540.29-7.5Q540.29-5.45 540.42-4.15 540.54-2.85 540.67-2.13 540.79-1.4 540.79-1.05L540.79-1.05Q540.79-0.8 540.49-0.6 540.19-0.4 539.74-0.28 539.29-0.15 538.79-0.08 538.29 0 537.89 0L537.89 0Q537.44 0 537.19-0.33 536.94-0.65 536.74-1.43 536.54-2.2 536.29-3.45L536.29-3.45Q535.39-2.4 534.17-1.55 532.94-0.7 531.42-0.2 529.89 0.3 528.04 0.3ZM528.24-3.35L528.24-3.35Q530.04-3.35 531.42-3.85 532.79-4.35 533.92-5.13 535.04-5.9 535.99-6.8L535.99-6.8 535.99-12.7Q532.29-12.7 529.94-12.43 527.59-12.15 526.29-11.55 524.99-10.95 524.49-9.93 523.99-8.9 523.99-7.45L523.99-7.45Q523.99-5.45 525.07-4.4 526.14-3.35 528.24-3.35ZM552.04 10.4L551.64 10.4Q550.84 10.4 550.41 10.18 549.99 9.95 549.99 9.6L549.99 9.6Q549.99 9.5 550.01 9.38 550.04 9.25 550.24 8.75L550.24 8.75 555.14-3 554.74 0.25 545.49-24.75Q545.44-24.85 545.39-25.05 545.34-25.25 545.34-25.4L545.34-25.4Q545.34-25.8 545.87-26.03 546.39-26.25 547.49-26.25L547.49-26.25 547.74-26.25Q548.49-26.25 549.04-26.08 549.59-25.9 549.74-25.45L549.74-25.45 556.39-5.95 556.59-5.95 563.44-25.45Q563.59-25.9 564.14-26.08 564.69-26.25 565.49-26.25L565.49-26.25 565.64-26.25Q566.64-26.25 567.06-26.03 567.49-25.8 567.49-25.4L567.49-25.4Q567.49-25.25 567.46-25.1 567.44-24.95 567.34-24.7L567.34-24.7 554.39 9.35Q554.19 9.9 553.56 10.15 552.94 10.4 552.04 10.4L552.04 10.4Z" opacity="1" transform="matrix(1,0,0,1,0,0)" fill="#dedede" class="slogan-text-1" data-fill-palette-color="quaternary" id="text-1"></path></svg></g></svg></g></svg></g></svg></g><g></g></svg></g><defs></defs></svg><rect width="395.52" height="172.88202777836395" fill="none" stroke="none" visibility="hidden"></rect></g></svg></g></svg>