<svg xmlns="http://www.w3.org/2000/svg" version="1.1" xmlns:xlink="http://www.w3.org/1999/xlink" xmlns:svgjs="http://svgjs.dev/svgjs" width="1500" height="420" viewBox="0 0 1500 420"><g transform="matrix(1,0,0,1,-0.9090909090909918,0.4170475951455046)"><svg viewBox="0 0 396 111" data-background-color="#ffffff" preserveAspectRatio="xMidYMid meet" height="420" width="1500" xmlns="http://www.w3.org/2000/svg" xmlns:xlink="http://www.w3.org/1999/xlink"><g id="tight-bounds" transform="matrix(1,0,0,1,0.2400000000000091,-0.11021972157416826)"><svg viewBox="0 0 395.52 111.22043944314834" height="111.22043944314834" width="395.52"><g><svg viewBox="0 0 586.9400810203165 165.04787049422706" height="111.22043944314834" width="395.52"><g transform="matrix(1,0,0,1,189.44248102031654,2.148933714198648)"><svg viewBox="0 0 397.4975999999999 160.75000306582976" height="160.75000306582976" width="397.4975999999999"><g id="textblocktransform"><svg viewBox="0 0 397.4975999999999 160.75000306582976" height="160.75000306582976" width="397.4975999999999" id="textblock"><g><rect width="397.4975999999999" height="9.494466659968921" x="0" y="116.46688330221583" fill="#336a86" opacity="1" stroke-width="0" stroke="transparent" fill-opacity="1" class="rect-qz-0" data-fill-palette-color="primary" rx="1%" id="qz-0" data-palette-color="#336a86"></rect></g><g transform="matrix(1,0,0,1,0.9887999999999693,0)"><svg viewBox="0 0 395.52 105.28230215827338" height="105.28230215827338" width="395.52"><g transform="matrix(1,0,0,1,0,0)"><svg width="395.52" viewBox="1.9 -36.25 173.73999999999998 46.25" height="105.28230215827338" data-palette-color="#336a86"><path d="M12.65 0.2L12.65 0.2Q11.1 0.2 9.93-0.6 8.75-1.4 8.8-3L8.8-3Q8.9-5.8 9.22-9.2 9.55-12.6 10-16.13 10.45-19.65 10.93-22.9 11.4-26.15 11.8-28.7L11.8-28.7Q10.9-28.8 10.05-28.85 9.2-28.9 8.5-28.9L8.5-28.9Q6.4-28.9 4.73-28.5 3.05-28.1 1.9-27.1L1.9-27.1Q1.9-30.25 2.43-32.23 2.95-34.2 4.38-35.1 5.8-36 8.55-36L8.55-36Q10.55-36 13.03-35.68 15.5-35.35 18.05-35 20.6-34.65 22.8-34.65L22.8-34.65Q24.6-34.65 26.03-35 27.45-35.35 28.2-36.25L28.2-36.25Q29.3-35.9 29.9-34.73 30.5-33.55 30.5-32.15L30.5-32.15Q30.5-30.9 29.95-29.73 29.4-28.55 28.2-27.78 27-27 24.95-27L24.95-27Q24-27 22.63-27.18 21.25-27.35 19.7-27.55L19.7-27.55Q19.15-24.55 18.57-20.38 18-16.2 17.63-11.4 17.25-6.6 17.15-1.65L17.15-1.65Q16.25-0.7 15.03-0.25 13.8 0.2 12.65 0.2ZM36.9 0.2L36.9 0.2Q35.1 0.2 33.7-1.28 32.3-2.75 32.3-5.45L32.3-5.45Q32.3-6.75 32.6-8.4 32.9-10.05 33.3-11.78 33.7-13.5 34-15.03 34.3-16.55 34.3-17.55L34.3-17.55Q34.3-18.6 33.92-19.23 33.55-19.85 32.95-19.85L32.95-19.85Q32-19.85 31-18.55L31-18.55 30.7-18.75Q30.65-19.55 31.05-20.65 31.45-21.75 32.3-22.78 33.15-23.8 34.47-24.5 35.8-25.2 37.6-25.2L37.6-25.2Q40.25-25.2 41.45-23.68 42.65-22.15 42.65-20L42.65-20Q42.65-19.65 42.62-19.28 42.6-18.9 42.55-18.55L42.55-18.55Q44.35-21.8 46.32-23.53 48.3-25.25 50-25.25L50-25.25Q51.6-25.25 52.35-24 53.1-22.75 53.1-21L53.1-21Q53.1-19.4 52.47-17.75 51.85-16.1 50.62-15.03 49.4-13.95 47.65-14L47.65-14 47.45-14.1Q47.4-15.4 46.6-16.15 45.8-16.9 44.8-16.9L44.8-16.9Q43.45-16.9 42.27-15.55 41.1-14.2 41.1-11.65L41.1-11.65Q41.1-10.1 41.45-8.3 41.8-6.5 41.8-5.25L41.8-5.25Q41.8-3.75 41.1-2.5 40.4-1.25 39.3-0.53 38.2 0.2 36.9 0.2ZM72.8 0.25L72.8 0.25Q71.05 0.25 69.75-0.9 68.44-2.05 68.44-4.65L68.44-4.65Q68.44-4.9 68.44-5.15 68.44-5.4 68.5-5.65L68.5-5.65Q67-2.65 65.12-1.23 63.24 0.2 61.34 0.2L61.34 0.2Q59.59 0.2 58.05-1.03 56.49-2.25 55.55-4.65 54.59-7.05 54.59-10.45L54.59-10.45Q54.59-13.95 55.57-16.7 56.55-19.45 58.14-21.35 59.74-23.25 61.64-24.23 63.55-25.2 65.34-25.2L65.34-25.2Q67.34-25.2 68.94-23.98 70.55-22.75 71.14-20.1L71.14-20.1Q71.3-20.95 71.37-21.65 71.44-22.35 71.44-22.6L71.44-22.6Q71.5-23.95 72.82-24.6 74.14-25.25 75.75-25.25L75.75-25.25Q77.14-25.25 78.39-24.7 79.64-24.15 80.09-22.85L80.09-22.85 80.19-22.55Q79.59-21.2 79-19.3 78.39-17.4 77.89-15.33 77.39-13.25 77.09-11.28 76.8-9.3 76.8-7.8L76.8-7.8Q76.8-6.15 77.14-5.53 77.5-4.9 78-4.9L78-4.9Q78.84-4.9 79.55-6.1L79.55-6.1 79.94-5.9Q79.94-4.2 78.84-2.8 77.75-1.4 76.09-0.58 74.44 0.25 72.8 0.25ZM64.64-6.1L64.64-6.1Q65.94-6.1 67.52-8.43 69.09-10.75 70.25-15.1L70.25-15.1Q70.34-15.55 70.44-15.98 70.55-16.4 70.59-16.8L70.59-16.8Q69.8-18.65 68.92-19.43 68.05-20.2 67.19-20.2L67.19-20.2Q65.94-20.2 64.87-18.88 63.8-17.55 63.12-15.55 62.45-13.55 62.45-11.55L62.45-11.55Q62.45-8.8 63.07-7.45 63.7-6.1 64.64-6.1ZM89.84 0.2L89.84 0.2Q87.24 0.2 85.62-1.33 83.99-2.85 83.99-6.05L83.99-6.05Q83.99-7.65 84.37-9.43 84.74-11.2 85.22-12.93 85.69-14.65 86.04-16.05 86.39-17.45 86.39-18.3L86.39-18.3Q86.39-19.15 86.04-19.53 85.69-19.9 85.19-19.9L85.19-19.9Q84.69-19.9 84.19-19.58 83.69-19.25 83.34-18.6L83.34-18.6 82.94-18.75Q83.04-20.8 84.09-22.25 85.14-23.7 86.72-24.45 88.29-25.2 89.89-25.2L89.89-25.2Q91.19-25.2 92.39-24.68 93.59-24.15 94.32-23.08 95.04-22 94.99-20.35L94.99-20.35Q94.94-19.25 94.59-17.65 94.24-16.05 93.77-14.23 93.29-12.4 92.94-10.7 92.59-9 92.59-7.7L92.59-7.7Q92.59-6.6 92.92-5.95 93.24-5.3 94.04-5.3L94.04-5.3Q94.89-5.3 96.29-6.2 97.69-7.1 99.09-8.8L99.09-8.8Q98.79-11.6 98.79-13.75L98.79-13.75Q98.79-19.25 100.42-21.7 102.04-24.15 104.49-24.15L104.49-24.15Q106.29-24.15 106.94-22.95 107.59-21.75 107.59-19.75L107.59-19.75Q107.59-16.8 106.59-14.2 105.59-11.6 104.24-10.05L104.24-10.05Q104.34-7.8 105.17-6.55 105.99-5.3 107.14-5.3L107.14-5.3Q108.29-5.3 109.52-6.6 110.74-7.9 111.64-10.6 112.54-13.3 112.69-17.45L112.69-17.45Q112.74-20.8 112.24-22.35L112.24-22.35 112.24-22.6Q112.94-23.75 114.47-24.58 115.99-25.4 117.54-25.4L117.54-25.4Q118.64-25.4 119.57-24.78 120.49-24.15 121.04-22.48 121.59-20.8 121.44-17.65L121.44-17.65Q121.29-13.25 119.99-9.93 118.69-6.6 116.67-4.35 114.64-2.1 112.29-0.95 109.94 0.2 107.64 0.2L107.64 0.2Q105.04 0.2 102.89-1.23 100.74-2.65 99.64-5.25L99.64-5.25Q97.39-2.9 95.02-1.35 92.64 0.2 89.84 0.2ZM141.94 0.25L141.94 0.25Q140.19 0.25 138.89-0.9 137.59-2.05 137.59-4.65L137.59-4.65Q137.59-4.9 137.59-5.15 137.59-5.4 137.64-5.65L137.64-5.65Q136.14-2.65 134.27-1.23 132.39 0.2 130.49 0.2L130.49 0.2Q128.74 0.2 127.19-1.03 125.64-2.25 124.69-4.65 123.74-7.05 123.74-10.45L123.74-10.45Q123.74-13.95 124.72-16.7 125.69-19.45 127.29-21.35 128.89-23.25 130.79-24.23 132.69-25.2 134.49-25.2L134.49-25.2Q136.49-25.2 138.09-23.98 139.69-22.75 140.29-20.1L140.29-20.1Q140.44-20.95 140.52-21.65 140.59-22.35 140.59-22.6L140.59-22.6Q140.64-23.95 141.97-24.6 143.29-25.25 144.89-25.25L144.89-25.25Q146.29-25.25 147.54-24.7 148.79-24.15 149.24-22.85L149.24-22.85 149.34-22.55Q148.74-21.2 148.14-19.3 147.54-17.4 147.04-15.33 146.54-13.25 146.24-11.28 145.94-9.3 145.94-7.8L145.94-7.8Q145.94-6.15 146.29-5.53 146.64-4.9 147.14-4.9L147.14-4.9Q147.99-4.9 148.69-6.1L148.69-6.1 149.09-5.9Q149.09-4.2 147.99-2.8 146.89-1.4 145.24-0.58 143.59 0.25 141.94 0.25ZM133.79-6.1L133.79-6.1Q135.09-6.1 136.67-8.43 138.24-10.75 139.39-15.1L139.39-15.1Q139.49-15.55 139.59-15.98 139.69-16.4 139.74-16.8L139.74-16.8Q138.94-18.65 138.06-19.43 137.19-20.2 136.34-20.2L136.34-20.2Q135.09-20.2 134.02-18.88 132.94-17.55 132.27-15.55 131.59-13.55 131.59-11.55L131.59-11.55Q131.59-8.8 132.22-7.45 132.84-6.1 133.79-6.1ZM162.29 10L162.29 10Q159.79 10 158.26 8.47 156.74 6.95 156.74 4.35L156.74 4.35Q156.74 3 157.21 1.38 157.69-0.25 158.79-2.05L158.79-2.05Q156.34-2.2 154.76-3.7 153.19-5.2 153.19-8.25L153.19-8.25Q153.19-10.05 153.66-12.13 154.14-14.2 154.59-16.03 155.04-17.85 155.04-18.85L155.04-18.85Q155.04-19.6 154.74-19.93 154.44-20.25 154.04-20.25L154.04-20.25Q153.64-20.25 153.16-19.93 152.69-19.6 152.44-18.95L152.44-18.95 151.59-19.85Q151.89-21.4 152.89-22.6 153.89-23.8 155.34-24.5 156.79-25.2 158.34-25.2L158.34-25.2Q160.09-25.2 161.39-24.08 162.69-22.95 162.69-20L162.69-20Q162.69-18.15 162.24-16.03 161.79-13.9 161.34-12.03 160.89-10.15 160.89-9.05L160.89-9.05Q160.89-8.05 161.31-7.58 161.74-7.1 162.29-7.1L162.29-7.1Q162.99-7.1 163.89-7.88 164.79-8.65 165.59-10.45 166.39-12.25 166.64-15.3L166.64-15.3Q166.74-16.25 166.79-17.73 166.84-19.2 166.89-20.48 166.94-21.75 166.94-22.05L166.94-22.05Q166.94-23.85 168.26-24.58 169.59-25.3 171.19-25.3L171.19-25.3Q172.59-25.3 173.84-24.75 175.09-24.2 175.54-22.9L175.54-22.9 175.64-22.6Q175.19-22.2 174.86-19.9 174.54-17.6 174.09-13.75L174.09-13.75Q173.79-11.25 173.34-8.1 172.89-4.95 172.11-1.78 171.34 1.4 170.06 4.08 168.79 6.75 166.89 8.38 164.99 10 162.29 10ZM161.09 4.25L161.09 4.25Q162.64 4.25 163.86 1.43 165.09-1.4 165.79-6.6L165.79-6.6Q162.59-2.5 161.39-0.15 160.19 2.2 160.19 3.25L160.19 3.25Q160.19 4.25 161.09 4.25Z" opacity="1" transform="matrix(1,0,0,1,0,0)" fill="#336a86" class="wordmark-text-0" data-fill-palette-color="primary" id="text-0"></path></svg></g></svg></g><g transform="matrix(1,0,0,1,40.54079999999996,137.1459311061272)"><svg viewBox="0 0 316.416 23.604071959702566" height="23.604071959702566" width="316.416"><g transform="matrix(1,0,0,1,0,0)"><svg width="316.416" viewBox="1.25 -36.65 625.29 46.65" height="23.604071959702566" data-palette-color="#69a2c9"><path d="M14.7 0.2L14.7 0.2Q13.3 0.2 12.15-0.3 11-0.8 10.45-1.55L10.45-1.55Q11.25-4.2 11.68-7.3 12.1-10.4 12.1-13.45L12.1-13.45Q12.1-17.25 11.4-20.58 10.7-23.9 9.28-25.95 7.85-28 5.6-28L5.6-28Q3.9-28 1.75-26.6L1.75-26.6 1.25-26.8Q1.5-31.1 3.4-33.55 5.3-36 8.2-36L8.2-36Q10.3-36 12.03-34.8 13.75-33.6 15.08-31.6 16.4-29.6 17.38-27.1 18.35-24.6 18.95-22L18.95-22Q20.05-27.15 21.8-30.28 23.55-33.4 25.55-34.83 27.55-36.25 29.4-36.25L29.4-36.25Q31.75-36.25 33.43-34.35 35.1-32.45 35.1-29.45L35.1-29.45Q35.1-27.8 34.5-25.9L34.5-25.9Q33.05-26.7 31.4-26.7L31.4-26.7Q29.25-26.7 27.1-25.43 24.95-24.15 23.18-21.83 21.4-19.5 20.4-16.35L20.4-16.35Q20.55-13.75 20.55-11.85L20.55-11.85Q20.55-9.25 20.25-6.98 19.95-4.7 19.15-1.65L19.15-1.65Q18.2-0.7 17.03-0.25 15.85 0.2 14.7 0.2ZM46.55 0.35L46.55 0.35Q42.8 0.35 40.35-1.15 37.9-2.65 36.72-5.13 35.55-7.6 35.55-10.4L35.55-10.4Q35.55-13.05 36.52-15.7 37.5-18.35 39.37-20.53 41.25-22.7 43.95-24.03 46.65-25.35 50.15-25.35L50.15-25.35Q53.9-25.35 56.32-23.83 58.75-22.3 59.92-19.8 61.1-17.3 61.1-14.45L61.1-14.45Q61.1-11.85 60.15-9.22 59.2-6.6 57.32-4.42 55.45-2.25 52.75-0.95 50.05 0.35 46.55 0.35ZM47.9-3.9L47.9-3.9Q49.25-3.9 50.15-5.3 51.05-6.7 51.5-8.88 51.95-11.05 51.95-13.3L51.95-13.3Q51.95-15.3 51.57-17.07 51.2-18.85 50.45-19.98 49.7-21.1 48.5-21.1L48.5-21.1Q47.2-21.1 46.27-19.7 45.35-18.3 44.9-16.15 44.45-14 44.45-11.7L44.45-11.7Q44.45-9.7 44.82-7.93 45.2-6.15 45.95-5.03 46.7-3.9 47.9-3.9ZM70.65 0.2L70.65 0.2Q68.4 0.2 66.87-1.65 65.34-3.5 65.34-6.6L65.34-6.6Q65.34-8.3 65.75-10.25 66.15-12.2 66.55-13.95L66.55-13.95Q66.9-15.25 67.12-16.38 67.34-17.5 67.34-18.2L67.34-18.2Q67.34-19.1 66.97-19.5 66.59-19.9 66.09-19.9L66.09-19.9Q65.59-19.9 65.09-19.58 64.59-19.25 64.3-18.6L64.3-18.6 63.9-18.75Q63.9-20.8 64.9-22.25 65.9-23.7 67.45-24.45 69-25.2 70.59-25.2L70.59-25.2Q71.9-25.2 73.09-24.68 74.3-24.15 75.07-23.05 75.84-21.95 75.84-20.3L75.84-20.3Q75.84-19.3 75.57-17.9 75.3-16.5 74.95-15L74.95-15Q74.59-13.45 74.27-11.88 73.95-10.3 73.95-9.1L73.95-9.1Q73.95-8 74.3-7.3 74.65-6.6 75.34-6.6L75.34-6.6Q76.65-6.6 78.27-9 79.9-11.4 80.9-15.45L80.9-15.45Q81.09-16.25 81.25-17.15 81.4-18.05 81.4-19L81.4-19Q81.4-19.75 81.3-20.53 81.2-21.3 81-22.1L81-22.1 81-22.45Q81.8-23.8 83.07-24.5 84.34-25.2 85.65-25.2L85.65-25.2Q87.4-25.2 88.8-24 90.2-22.8 90.2-20.5L90.2-20.5Q90.2-19.15 89.7-17.38 89.2-15.6 88.59-13.7L88.59-13.7Q88-11.85 87.5-10.05 87-8.25 87-6.85L87-6.85Q87-4.8 88.45-4.8L88.45-4.8Q88.84-4.8 89.42-5.03 90-5.25 90.5-5.95L90.5-5.95 90.84-5.85Q90.84-4.05 89.87-2.68 88.9-1.3 87.4-0.55 85.9 0.2 84.3 0.2L84.3 0.2Q82.25 0.2 80.62-1.3 79-2.8 79-6.2L79-6.2 79-6.3Q76.95-2.8 74.75-1.3 72.55 0.2 70.65 0.2ZM99.29 0.2L99.29 0.2Q97.49 0.2 96.09-1.28 94.69-2.75 94.69-5.45L94.69-5.45Q94.69-6.75 94.99-8.4 95.29-10.05 95.69-11.78 96.09-13.5 96.39-15.03 96.69-16.55 96.69-17.55L96.69-17.55Q96.69-18.6 96.32-19.23 95.94-19.85 95.34-19.85L95.34-19.85Q94.39-19.85 93.39-18.55L93.39-18.55 93.09-18.75Q93.04-19.55 93.44-20.65 93.84-21.75 94.69-22.78 95.54-23.8 96.87-24.5 98.19-25.2 99.99-25.2L99.99-25.2Q102.64-25.2 103.84-23.68 105.04-22.15 105.04-20L105.04-20Q105.04-19.65 105.02-19.28 104.99-18.9 104.94-18.55L104.94-18.55Q106.74-21.8 108.72-23.53 110.69-25.25 112.39-25.25L112.39-25.25Q113.99-25.25 114.74-24 115.49-22.75 115.49-21L115.49-21Q115.49-19.4 114.87-17.75 114.24-16.1 113.02-15.03 111.79-13.95 110.04-14L110.04-14 109.84-14.1Q109.79-15.4 108.99-16.15 108.19-16.9 107.19-16.9L107.19-16.9Q105.84-16.9 104.67-15.55 103.49-14.2 103.49-11.65L103.49-11.65Q103.49-10.1 103.84-8.3 104.19-6.5 104.19-5.25L104.19-5.25Q104.19-3.75 103.49-2.5 102.79-1.25 101.69-0.53 100.59 0.2 99.29 0.2ZM139.04 0.35L139.04 0.35Q137.09 0.35 135.09-0.1 133.09-0.55 131.41-1.53 129.74-2.5 128.71-4.08 127.69-5.65 127.69-7.85L127.69-7.85Q127.69-8.1 127.69-8.33 127.69-8.55 127.74-8.9L127.74-8.9Q127.89-10.25 128.41-12.25 128.94-14.25 129.64-16.5 130.34-18.75 131.01-20.95 131.69-23.15 132.14-24.98 132.59-26.8 132.59-27.9L132.59-27.9Q132.59-29.1 131.94-29.1L131.94-29.1Q131.29-29.1 129.99-27.85 128.69-26.6 126.99-23.7L126.99-23.7 126.69-23.8Q126.69-27.85 128.51-30.73 130.34-33.6 133.71-35.13 137.09-36.65 141.69-36.65L141.69-36.65Q145.99-36.65 149.09-35.38 152.19-34.1 154.16-31.9 156.14-29.7 157.09-26.88 158.04-24.05 158.04-20.95L158.04-20.95Q158.04-17.2 156.71-13.43 155.39-9.65 152.91-6.53 150.44-3.4 146.91-1.53 143.39 0.35 139.04 0.35ZM139.89-6.25L139.89-6.25Q141.89-6.25 143.51-7.43 145.14-8.6 146.34-10.55 147.54-12.5 148.19-14.88 148.84-17.25 148.84-19.65L148.84-19.65Q148.84-22.5 147.86-25 146.89-27.5 144.74-29.05 142.59-30.6 139.14-30.6L139.14-30.6Q139.39-29.65 139.51-28.65 139.64-27.65 139.64-26.6L139.64-26.6Q139.64-24.3 139.21-21.9 138.79-19.5 138.26-17.25 137.74-15 137.31-13.05 136.89-11.1 136.89-9.6L136.89-9.6Q136.89-8.05 137.54-7.15 138.19-6.25 139.89-6.25ZM171.14 0.35L171.14 0.35Q167.49 0.35 165.09-1.13 162.69-2.6 161.49-5.03 160.29-7.45 160.29-10.25L160.29-10.25Q160.29-12.9 161.31-15.58 162.34-18.25 164.31-20.45 166.29-22.65 169.11-24 171.94-25.35 175.49-25.35L175.49-25.35Q179.89-25.35 181.91-23.38 183.94-21.4 183.94-18.6L183.94-18.6Q183.94-16.2 182.66-14.18 181.39-12.15 179.29-10.93 177.19-9.7 174.69-9.7L174.69-9.7Q173.39-9.7 172.04-10.1 170.69-10.5 169.39-11.35L169.39-11.35Q169.64-8.25 171.19-6.85 172.74-5.45 174.89-5.45L174.89-5.45Q176.39-5.45 177.89-6.03 179.39-6.6 180.66-7.53 181.94-8.45 182.64-9.5L182.64-9.5 182.99-9.25Q182.99-6.65 181.91-4.83 180.84-3 179.09-1.85 177.34-0.7 175.26-0.18 173.19 0.35 171.14 0.35ZM172.29-13.15L172.29-13.15Q173.89-13.15 174.89-14.08 175.89-15 176.39-16.25 176.89-17.5 176.89-18.45L176.89-18.45Q176.89-19.6 176.24-20.38 175.59-21.15 174.44-21.15L174.44-21.15Q173.54-21.15 172.46-20.5 171.39-19.85 170.54-18.28 169.69-16.7 169.44-13.9L169.44-13.9Q171.04-13.15 172.29-13.15ZM194.93 0.45L194.93 0.45Q191.83 0.45 189.78-0.4 187.73-1.25 186.73-2.58 185.73-3.9 185.73-5.25L185.73-5.25Q185.73-7.15 187.43-8.63 189.13-10.1 192.03-10.1L192.03-10.1Q192.03-7.55 192.68-6.03 193.33-4.5 194.36-3.85 195.38-3.2 196.33-3.2L196.33-3.2Q197.48-3.2 198.26-3.88 199.03-4.55 199.03-5.55L199.03-5.55Q199.03-6.95 197.58-8 196.13-9.05 193.83-10.35L193.83-10.35Q192.68-11.05 191.33-11.98 189.98-12.9 189.03-14.23 188.08-15.55 188.08-17.4L188.08-17.4Q188.08-19.35 189.21-20.85 190.33-22.35 192.18-23.38 194.03-24.4 196.18-24.93 198.33-25.45 200.38-25.45L200.38-25.45Q204.23-25.45 206.18-23.9 208.13-22.35 208.13-20.6L208.13-20.6Q208.13-19.1 206.63-17.9 205.13-16.7 202.03-16.7L202.03-16.7Q202.08-19.25 200.98-20.43 199.88-21.6 198.63-21.6L198.63-21.6Q197.73-21.6 197.13-21.05 196.53-20.5 196.53-19.45L196.53-19.45Q196.53-18.25 197.31-17.38 198.08-16.5 199.26-15.83 200.43-15.15 201.68-14.55L201.68-14.55Q203.38-13.75 204.88-12.85 206.38-11.95 207.33-10.8 208.28-9.65 208.28-8L208.28-8Q208.28-5.75 206.46-3.83 204.63-1.9 201.58-0.73 198.53 0.45 194.93 0.45ZM218.28 0.2L218.28 0.2Q216.68 0.2 215.26-0.53 213.83-1.25 212.96-2.8 212.08-4.35 212.08-6.75L212.08-6.75Q212.08-8.05 212.33-10.15 212.58-12.25 213.01-14.75 213.43-17.25 213.88-19.75L213.88-19.75Q212.88-19.7 211.96-19.55 211.03-19.4 210.13-19.2L210.13-19.2 210.03-19.55Q211.03-20.75 212.13-21.6 213.23-22.45 214.43-23L214.43-23Q215.08-26.3 215.53-28.73 215.98-31.15 215.98-31.6L215.98-31.6Q215.98-32.45 217.31-33 218.63-33.55 220.28-33.55L220.28-33.55Q221.73-33.55 223.01-33 224.28-32.45 224.73-31.15L224.73-31.15Q224.43-30.85 223.88-28.93 223.33-27 222.73-24.25L222.73-24.25Q223.68-24.2 224.68-24.15 225.68-24.1 226.73-24L226.73-24Q226.83-23.7 226.88-23.35 226.93-23 226.93-22.6L226.93-22.6Q226.93-21.85 226.71-20.98 226.48-20.1 226.18-19.4L226.18-19.4Q224.98-19.5 223.93-19.63 222.88-19.75 221.88-19.8L221.88-19.8Q221.48-17.65 221.16-15.5 220.83-13.35 220.66-11.6 220.48-9.85 220.48-8.85L220.48-8.85Q220.48-6.75 221.26-6.05 222.03-5.35 223.13-5.35L223.13-5.35Q224.13-5.35 224.93-5.75 225.73-6.15 226.08-6.7L226.08-6.7 226.58-6.55Q226.28-4.5 224.98-2.98 223.68-1.45 221.88-0.63 220.08 0.2 218.28 0.2ZM238.23-26.75L238.23-26.75Q236.23-26.75 234.95-27.98 233.68-29.2 233.68-31.05L233.68-31.05Q233.68-33.05 235.18-34.5 236.68-35.95 238.83-35.95L238.83-35.95Q240.83-35.95 242.1-34.7 243.38-33.45 243.38-31.6L243.38-31.6Q243.38-29.6 241.88-28.18 240.38-26.75 238.23-26.75ZM234.73 0.2L234.73 0.2Q232.78 0.2 231.23-1.18 229.68-2.55 229.68-5.6L229.68-5.6Q229.68-7.35 230.15-8.88 230.63-10.4 231.25-11.85 231.88-13.3 232.35-14.68 232.83-16.05 232.83-17.4L232.83-17.4Q232.83-18.6 232.43-19.13 232.03-19.65 231.48-19.65L231.48-19.65Q230.63-19.65 229.83-18.55L229.83-18.55 229.48-18.75Q229.68-20.75 230.75-22.18 231.83-23.6 233.4-24.4 234.98-25.2 236.53-25.2L236.53-25.2Q238.43-25.2 239.83-23.98 241.23-22.75 241.23-20L241.23-20Q241.23-18.35 240.75-16.53 240.28-14.7 239.65-12.9 239.03-11.1 238.55-9.55 238.08-8 238.08-6.9L238.08-6.9Q238.08-5.95 238.45-5.55 238.83-5.15 239.28-5.15L239.28-5.15Q239.73-5.15 240.15-5.43 240.58-5.7 240.78-6.05L240.78-6.05 241.13-5.95Q241.13-4.1 240.15-2.73 239.18-1.35 237.73-0.58 236.28 0.2 234.73 0.2ZM250.93 0.15L250.93 0.15Q249.08 0.15 247.58-1.33 246.08-2.8 246.08-5.45L246.08-5.45Q246.08-6.75 246.43-8.4 246.78-10.05 247.2-11.75 247.63-13.45 247.98-14.95 248.33-16.45 248.33-17.4L248.33-17.4Q248.33-18.4 247.93-18.98 247.53-19.55 246.88-19.55L246.88-19.55Q246.03-19.55 245.03-18.55L245.03-18.55 244.73-18.75Q244.68-19.55 245.08-20.65 245.48-21.75 246.3-22.78 247.13-23.8 248.43-24.5 249.73-25.2 251.53-25.2L251.53-25.2Q254.18-25.2 255.45-23.68 256.73-22.15 256.73-19.95L256.73-19.95Q256.73-19.15 256.58-18.4L256.58-18.4Q257.63-19.95 259.18-21.53 260.73-23.1 262.6-24.15 264.48-25.2 266.48-25.2L266.48-25.2Q268.83-25.2 269.68-23.7 270.53-22.2 270.53-19.95L270.53-19.95Q270.53-17.85 270.08-15.45 269.63-13.05 269.18-10.83 268.73-8.6 268.73-7.1L268.73-7.1Q268.73-5.1 269.88-5.1L269.88-5.1Q270.48-5.1 270.93-5.48 271.38-5.85 271.53-6.2L271.53-6.2 271.88-6.05Q271.88-4.2 270.85-2.8 269.83-1.4 268.28-0.63 266.73 0.15 265.13 0.15L265.13 0.15Q263.18 0.15 261.68-1.2 260.18-2.55 260.18-5.6L260.18-5.6Q260.18-7.4 260.65-9.5 261.13-11.6 261.58-13.55 262.03-15.5 262.03-16.75L262.03-16.75Q262.03-17.5 261.75-17.93 261.48-18.35 260.78-18.35L260.78-18.35Q259.63-18.35 258.25-17.3 256.88-16.25 255.9-14.5 254.93-12.75 254.93-10.65L254.93-10.65Q254.93-9.3 255.25-8.05 255.58-6.8 255.58-5.35L255.58-5.35Q255.58-2.65 254.18-1.25 252.78 0.15 250.93 0.15ZM292.72 0.25L292.72 0.25Q290.97 0.25 289.67-0.9 288.37-2.05 288.37-4.65L288.37-4.65Q288.37-4.9 288.37-5.15 288.37-5.4 288.42-5.65L288.42-5.65Q286.92-2.65 285.05-1.23 283.17 0.2 281.27 0.2L281.27 0.2Q279.52 0.2 277.97-1.03 276.42-2.25 275.47-4.65 274.52-7.05 274.52-10.45L274.52-10.45Q274.52-13.95 275.5-16.7 276.47-19.45 278.07-21.35 279.67-23.25 281.57-24.23 283.47-25.2 285.27-25.2L285.27-25.2Q287.27-25.2 288.87-23.98 290.47-22.75 291.07-20.1L291.07-20.1Q291.22-20.95 291.3-21.65 291.37-22.35 291.37-22.6L291.37-22.6Q291.42-23.95 292.75-24.6 294.07-25.25 295.67-25.25L295.67-25.25Q297.07-25.25 298.32-24.7 299.57-24.15 300.02-22.85L300.02-22.85 300.12-22.55Q299.52-21.2 298.92-19.3 298.32-17.4 297.82-15.33 297.32-13.25 297.02-11.28 296.72-9.3 296.72-7.8L296.72-7.8Q296.72-6.15 297.07-5.53 297.42-4.9 297.92-4.9L297.92-4.9Q298.77-4.9 299.47-6.1L299.47-6.1 299.87-5.9Q299.87-4.2 298.77-2.8 297.67-1.4 296.02-0.58 294.37 0.25 292.72 0.25ZM284.57-6.1L284.57-6.1Q285.87-6.1 287.45-8.43 289.02-10.75 290.17-15.1L290.17-15.1Q290.27-15.55 290.37-15.98 290.47-16.4 290.52-16.8L290.52-16.8Q289.72-18.65 288.85-19.43 287.97-20.2 287.12-20.2L287.12-20.2Q285.87-20.2 284.8-18.88 283.72-17.55 283.05-15.55 282.37-13.55 282.37-11.55L282.37-11.55Q282.37-8.8 283-7.45 283.62-6.1 284.57-6.1ZM309.82 0.2L309.82 0.2Q308.22 0.2 306.8-0.53 305.37-1.25 304.5-2.8 303.62-4.35 303.62-6.75L303.62-6.75Q303.62-8.05 303.87-10.15 304.12-12.25 304.55-14.75 304.97-17.25 305.42-19.75L305.42-19.75Q304.42-19.7 303.5-19.55 302.57-19.4 301.67-19.2L301.67-19.2 301.57-19.55Q302.57-20.75 303.67-21.6 304.77-22.45 305.97-23L305.97-23Q306.62-26.3 307.07-28.73 307.52-31.15 307.52-31.6L307.52-31.6Q307.52-32.45 308.85-33 310.17-33.55 311.82-33.55L311.82-33.55Q313.27-33.55 314.55-33 315.82-32.45 316.27-31.15L316.27-31.15Q315.97-30.85 315.42-28.93 314.87-27 314.27-24.25L314.27-24.25Q315.22-24.2 316.22-24.15 317.22-24.1 318.27-24L318.27-24Q318.37-23.7 318.42-23.35 318.47-23 318.47-22.6L318.47-22.6Q318.47-21.85 318.25-20.98 318.02-20.1 317.72-19.4L317.72-19.4Q316.52-19.5 315.47-19.63 314.42-19.75 313.42-19.8L313.42-19.8Q313.02-17.65 312.7-15.5 312.37-13.35 312.2-11.6 312.02-9.85 312.02-8.85L312.02-8.85Q312.02-6.75 312.8-6.05 313.57-5.35 314.67-5.35L314.67-5.35Q315.67-5.35 316.47-5.75 317.27-6.15 317.62-6.7L317.62-6.7 318.12-6.55Q317.82-4.5 316.52-2.98 315.22-1.45 313.42-0.63 311.62 0.2 309.82 0.2ZM329.77-26.75L329.77-26.75Q327.77-26.75 326.49-27.98 325.22-29.2 325.22-31.05L325.22-31.05Q325.22-33.05 326.72-34.5 328.22-35.95 330.37-35.95L330.37-35.95Q332.37-35.95 333.64-34.7 334.92-33.45 334.92-31.6L334.92-31.6Q334.92-29.6 333.42-28.18 331.92-26.75 329.77-26.75ZM326.27 0.2L326.27 0.2Q324.32 0.2 322.77-1.18 321.22-2.55 321.22-5.6L321.22-5.6Q321.22-7.35 321.69-8.88 322.17-10.4 322.79-11.85 323.42-13.3 323.89-14.68 324.37-16.05 324.37-17.4L324.37-17.4Q324.37-18.6 323.97-19.13 323.57-19.65 323.02-19.65L323.02-19.65Q322.17-19.65 321.37-18.55L321.37-18.55 321.02-18.75Q321.22-20.75 322.29-22.18 323.37-23.6 324.94-24.4 326.52-25.2 328.07-25.2L328.07-25.2Q329.97-25.2 331.37-23.98 332.77-22.75 332.77-20L332.77-20Q332.77-18.35 332.29-16.53 331.82-14.7 331.19-12.9 330.57-11.1 330.09-9.55 329.62-8 329.62-6.9L329.62-6.9Q329.62-5.95 329.99-5.55 330.37-5.15 330.82-5.15L330.82-5.15Q331.27-5.15 331.69-5.43 332.12-5.7 332.32-6.05L332.32-6.05 332.67-5.95Q332.67-4.1 331.69-2.73 330.72-1.35 329.27-0.58 327.82 0.2 326.27 0.2ZM347.51 0.35L347.51 0.35Q343.76 0.35 341.31-1.15 338.87-2.65 337.69-5.13 336.51-7.6 336.51-10.4L336.51-10.4Q336.51-13.05 337.49-15.7 338.47-18.35 340.34-20.53 342.22-22.7 344.92-24.03 347.62-25.35 351.12-25.35L351.12-25.35Q354.87-25.35 357.29-23.83 359.72-22.3 360.89-19.8 362.06-17.3 362.06-14.45L362.06-14.45Q362.06-11.85 361.12-9.22 360.17-6.6 358.29-4.42 356.42-2.25 353.72-0.95 351.01 0.35 347.51 0.35ZM348.87-3.9L348.87-3.9Q350.22-3.9 351.12-5.3 352.01-6.7 352.47-8.88 352.92-11.05 352.92-13.3L352.92-13.3Q352.92-15.3 352.54-17.07 352.17-18.85 351.42-19.98 350.67-21.1 349.47-21.1L349.47-21.1Q348.17-21.1 347.24-19.7 346.31-18.3 345.87-16.15 345.42-14 345.42-11.7L345.42-11.7Q345.42-9.7 345.79-7.93 346.17-6.15 346.92-5.03 347.67-3.9 348.87-3.9ZM370.81 0.15L370.81 0.15Q368.96 0.15 367.46-1.33 365.96-2.8 365.96-5.45L365.96-5.45Q365.96-6.75 366.31-8.4 366.66-10.05 367.09-11.75 367.51-13.45 367.86-14.95 368.21-16.45 368.21-17.4L368.21-17.4Q368.21-18.4 367.81-18.98 367.41-19.55 366.76-19.55L366.76-19.55Q365.91-19.55 364.91-18.55L364.91-18.55 364.61-18.75Q364.56-19.55 364.96-20.65 365.36-21.75 366.19-22.78 367.01-23.8 368.31-24.5 369.61-25.2 371.41-25.2L371.41-25.2Q374.06-25.2 375.34-23.68 376.61-22.15 376.61-19.95L376.61-19.95Q376.61-19.15 376.46-18.4L376.46-18.4Q377.51-19.95 379.06-21.53 380.61-23.1 382.49-24.15 384.36-25.2 386.36-25.2L386.36-25.2Q388.71-25.2 389.56-23.7 390.41-22.2 390.41-19.95L390.41-19.95Q390.41-17.85 389.96-15.45 389.51-13.05 389.06-10.83 388.61-8.6 388.61-7.1L388.61-7.1Q388.61-5.1 389.76-5.1L389.76-5.1Q390.36-5.1 390.81-5.48 391.26-5.85 391.41-6.2L391.41-6.2 391.76-6.05Q391.76-4.2 390.74-2.8 389.71-1.4 388.16-0.63 386.61 0.15 385.01 0.15L385.01 0.15Q383.06 0.15 381.56-1.2 380.06-2.55 380.06-5.6L380.06-5.6Q380.06-7.4 380.54-9.5 381.01-11.6 381.46-13.55 381.91-15.5 381.91-16.75L381.91-16.75Q381.91-17.5 381.64-17.93 381.36-18.35 380.66-18.35L380.66-18.35Q379.51-18.35 378.14-17.3 376.76-16.25 375.79-14.5 374.81-12.75 374.81-10.65L374.81-10.65Q374.81-9.3 375.14-8.05 375.46-6.8 375.46-5.35L375.46-5.35Q375.46-2.65 374.06-1.25 372.66 0.15 370.81 0.15ZM416.61 0.2L416.61 0.2Q415.21 0.2 414.06-0.3 412.91-0.8 412.36-1.55L412.36-1.55Q413.16-4.2 413.58-7.3 414.01-10.4 414.01-13.45L414.01-13.45Q414.01-17.25 413.31-20.58 412.61-23.9 411.18-25.95 409.76-28 407.51-28L407.51-28Q405.81-28 403.66-26.6L403.66-26.6 403.16-26.8Q403.41-31.1 405.31-33.55 407.21-36 410.11-36L410.11-36Q412.21-36 413.93-34.8 415.66-33.6 416.98-31.6 418.31-29.6 419.28-27.1 420.26-24.6 420.86-22L420.86-22Q421.96-27.15 423.71-30.28 425.46-33.4 427.46-34.83 429.46-36.25 431.31-36.25L431.31-36.25Q433.66-36.25 435.33-34.35 437.01-32.45 437.01-29.45L437.01-29.45Q437.01-27.8 436.41-25.9L436.41-25.9Q434.96-26.7 433.31-26.7L433.31-26.7Q431.16-26.7 429.01-25.43 426.86-24.15 425.08-21.83 423.31-19.5 422.31-16.35L422.31-16.35Q422.46-13.75 422.46-11.85L422.46-11.85Q422.46-9.25 422.16-6.98 421.86-4.7 421.06-1.65L421.06-1.65Q420.11-0.7 418.93-0.25 417.76 0.2 416.61 0.2ZM448.45 0.35L448.45 0.35Q444.7 0.35 442.25-1.15 439.81-2.65 438.63-5.13 437.45-7.6 437.45-10.4L437.45-10.4Q437.45-13.05 438.43-15.7 439.41-18.35 441.28-20.53 443.16-22.7 445.86-24.03 448.56-25.35 452.06-25.35L452.06-25.35Q455.81-25.35 458.23-23.83 460.66-22.3 461.83-19.8 463-17.3 463-14.45L463-14.45Q463-11.85 462.06-9.22 461.11-6.6 459.23-4.42 457.36-2.25 454.66-0.95 451.95 0.35 448.45 0.35ZM449.81-3.9L449.81-3.9Q451.16-3.9 452.06-5.3 452.95-6.7 453.41-8.88 453.86-11.05 453.86-13.3L453.86-13.3Q453.86-15.3 453.48-17.07 453.11-18.85 452.36-19.98 451.61-21.1 450.41-21.1L450.41-21.1Q449.11-21.1 448.18-19.7 447.25-18.3 446.81-16.15 446.36-14 446.36-11.7L446.36-11.7Q446.36-9.7 446.73-7.93 447.11-6.15 447.86-5.03 448.61-3.9 449.81-3.9ZM472.55 0.2L472.55 0.2Q470.3 0.2 468.78-1.65 467.25-3.5 467.25-6.6L467.25-6.6Q467.25-8.3 467.65-10.25 468.05-12.2 468.45-13.95L468.45-13.95Q468.8-15.25 469.03-16.38 469.25-17.5 469.25-18.2L469.25-18.2Q469.25-19.1 468.88-19.5 468.5-19.9 468-19.9L468-19.9Q467.5-19.9 467-19.58 466.5-19.25 466.2-18.6L466.2-18.6 465.8-18.75Q465.8-20.8 466.8-22.25 467.8-23.7 469.35-24.45 470.9-25.2 472.5-25.2L472.5-25.2Q473.8-25.2 475-24.68 476.2-24.15 476.98-23.05 477.75-21.95 477.75-20.3L477.75-20.3Q477.75-19.3 477.48-17.9 477.2-16.5 476.85-15L476.85-15Q476.5-13.45 476.18-11.88 475.85-10.3 475.85-9.1L475.85-9.1Q475.85-8 476.2-7.3 476.55-6.6 477.25-6.6L477.25-6.6Q478.55-6.6 480.18-9 481.8-11.4 482.8-15.45L482.8-15.45Q483-16.25 483.15-17.15 483.3-18.05 483.3-19L483.3-19Q483.3-19.75 483.2-20.53 483.1-21.3 482.9-22.1L482.9-22.1 482.9-22.45Q483.7-23.8 484.98-24.5 486.25-25.2 487.55-25.2L487.55-25.2Q489.3-25.2 490.7-24 492.1-22.8 492.1-20.5L492.1-20.5Q492.1-19.15 491.6-17.38 491.1-15.6 490.5-13.7L490.5-13.7Q489.9-11.85 489.4-10.05 488.9-8.25 488.9-6.85L488.9-6.85Q488.9-4.8 490.35-4.8L490.35-4.8Q490.75-4.8 491.33-5.03 491.9-5.25 492.4-5.95L492.4-5.95 492.75-5.85Q492.75-4.05 491.78-2.68 490.8-1.3 489.3-0.55 487.8 0.2 486.2 0.2L486.2 0.2Q484.15 0.2 482.53-1.3 480.9-2.8 480.9-6.2L480.9-6.2 480.9-6.3Q478.85-2.8 476.65-1.3 474.45 0.2 472.55 0.2ZM501.2 0.2L501.2 0.2Q499.4 0.2 498-1.28 496.6-2.75 496.6-5.45L496.6-5.45Q496.6-6.75 496.9-8.4 497.2-10.05 497.6-11.78 498-13.5 498.3-15.03 498.6-16.55 498.6-17.55L498.6-17.55Q498.6-18.6 498.23-19.23 497.85-19.85 497.25-19.85L497.25-19.85Q496.3-19.85 495.3-18.55L495.3-18.55 495-18.75Q494.95-19.55 495.35-20.65 495.75-21.75 496.6-22.78 497.45-23.8 498.78-24.5 500.1-25.2 501.9-25.2L501.9-25.2Q504.55-25.2 505.75-23.68 506.95-22.15 506.95-20L506.95-20Q506.95-19.65 506.93-19.28 506.9-18.9 506.85-18.55L506.85-18.55Q508.65-21.8 510.63-23.53 512.6-25.25 514.3-25.25L514.3-25.25Q515.9-25.25 516.65-24 517.4-22.75 517.4-21L517.4-21Q517.4-19.4 516.77-17.75 516.15-16.1 514.93-15.03 513.7-13.95 511.95-14L511.95-14 511.75-14.1Q511.7-15.4 510.9-16.15 510.1-16.9 509.1-16.9L509.1-16.9Q507.75-16.9 506.58-15.55 505.4-14.2 505.4-11.65L505.4-11.65Q505.4-10.1 505.75-8.3 506.1-6.5 506.1-5.25L506.1-5.25Q506.1-3.75 505.4-2.5 504.7-1.25 503.6-0.53 502.5 0.2 501.2 0.2ZM536.39 0.25L536.39 0.25Q533.64 0.25 531.79-2.05 529.94-4.35 529.94-8.35L529.94-8.35Q529.94-10.4 530.39-12.98 530.84-15.55 531.44-18.2 532.04-20.85 532.49-23.18 532.94-25.5 532.94-27.05L532.94-27.05Q532.94-28.15 532.64-28.78 532.34-29.4 531.54-29.4L531.54-29.4Q530.94-29.4 530.14-28.85 529.34-28.3 528.94-26.7L528.94-26.7 528.44-26.9Q528.44-31.2 530.42-33.7 532.39-36.2 535.74-36.2L535.74-36.2Q538.89-36.2 540.12-34.15 541.34-32.1 541.34-29L541.34-29Q541.34-26.7 540.87-24.1 540.39-21.5 539.79-18.93 539.19-16.35 538.72-14.15 538.24-11.95 538.24-10.5L538.24-10.5Q538.24-8.35 539.34-8.35L539.34-8.35Q539.99-8.35 541.09-9.28 542.19-10.2 543.42-11.83 544.64-13.45 545.79-15.53 546.94-17.6 547.74-19.9L547.74-19.9Q547.64-21 547.59-22.03 547.54-23.05 547.54-23.85L547.54-23.85Q547.54-27.85 548.32-30.3 549.09-32.75 550.29-33.9 551.49-35.05 552.74-35.05L552.74-35.05Q554.49-35.05 555.89-33.13 557.29-31.2 557.29-27.9L557.29-27.9Q557.29-25.85 556.54-23.33 555.79-20.8 554.04-17.95L554.04-17.95Q553.89-13.65 554.99-11 556.09-8.35 557.74-8.35L557.74-8.35Q558.79-8.35 560.02-9.43 561.24-10.5 562.29-12.43 563.34-14.35 564.02-16.9 564.69-19.45 564.69-22.35L564.69-22.35Q564.69-24.05 564.47-25.9 564.24-27.75 563.92-29.45 563.59-31.15 563.24-32.25L563.24-32.25Q563.24-33.1 563.97-33.98 564.69-34.85 565.84-35.48 566.99-36.1 568.19-36.1L568.19-36.1Q569.39-36.1 570.49-35.25 571.59-34.4 572.29-32.27 572.99-30.15 572.99-26.25L572.99-26.25Q572.99-20.8 571.59-16.03 570.19-11.25 567.82-7.6 565.44-3.95 562.59-1.88 559.74 0.2 556.79 0.2L556.79 0.2Q554.19 0.2 552.49-1.4 550.79-3 549.84-5.7 548.89-8.4 548.49-11.7L548.49-11.7Q546.69-7.4 544.59-4.78 542.49-2.15 540.39-0.95 538.29 0.25 536.39 0.25ZM592.84 0.25L592.84 0.25Q591.09 0.25 589.79-0.9 588.49-2.05 588.49-4.65L588.49-4.65Q588.49-4.9 588.49-5.15 588.49-5.4 588.54-5.65L588.54-5.65Q587.04-2.65 585.17-1.23 583.29 0.2 581.39 0.2L581.39 0.2Q579.64 0.2 578.09-1.03 576.54-2.25 575.59-4.65 574.64-7.05 574.64-10.45L574.64-10.45Q574.64-13.95 575.62-16.7 576.59-19.45 578.19-21.35 579.79-23.25 581.69-24.23 583.59-25.2 585.39-25.2L585.39-25.2Q587.39-25.2 588.99-23.98 590.59-22.75 591.19-20.1L591.19-20.1Q591.34-20.95 591.42-21.65 591.49-22.35 591.49-22.6L591.49-22.6Q591.54-23.95 592.87-24.6 594.19-25.25 595.79-25.25L595.79-25.25Q597.19-25.25 598.44-24.7 599.69-24.15 600.14-22.85L600.14-22.85 600.24-22.55Q599.64-21.2 599.04-19.3 598.44-17.4 597.94-15.33 597.44-13.25 597.14-11.28 596.84-9.3 596.84-7.8L596.84-7.8Q596.84-6.15 597.19-5.53 597.54-4.9 598.04-4.9L598.04-4.9Q598.89-4.9 599.59-6.1L599.59-6.1 599.99-5.9Q599.99-4.2 598.89-2.8 597.79-1.4 596.14-0.58 594.49 0.25 592.84 0.25ZM584.69-6.1L584.69-6.1Q585.99-6.1 587.57-8.43 589.14-10.75 590.29-15.1L590.29-15.1Q590.39-15.55 590.49-15.98 590.59-16.4 590.64-16.8L590.64-16.8Q589.84-18.65 588.97-19.43 588.09-20.2 587.24-20.2L587.24-20.2Q585.99-20.2 584.92-18.88 583.84-17.55 583.17-15.55 582.49-13.55 582.49-11.55L582.49-11.55Q582.49-8.8 583.12-7.45 583.74-6.1 584.69-6.1ZM613.19 10L613.19 10Q610.69 10 609.16 8.47 607.64 6.95 607.64 4.35L607.64 4.35Q607.64 3 608.11 1.38 608.59-0.25 609.69-2.05L609.69-2.05Q607.24-2.2 605.66-3.7 604.09-5.2 604.09-8.25L604.09-8.25Q604.09-10.05 604.56-12.13 605.04-14.2 605.49-16.03 605.94-17.85 605.94-18.85L605.94-18.85Q605.94-19.6 605.64-19.93 605.34-20.25 604.94-20.25L604.94-20.25Q604.54-20.25 604.06-19.93 603.59-19.6 603.34-18.95L603.34-18.95 602.49-19.85Q602.79-21.4 603.79-22.6 604.79-23.8 606.24-24.5 607.69-25.2 609.24-25.2L609.24-25.2Q610.99-25.2 612.29-24.08 613.59-22.95 613.59-20L613.59-20Q613.59-18.15 613.14-16.03 612.69-13.9 612.24-12.03 611.79-10.15 611.79-9.05L611.79-9.05Q611.79-8.05 612.21-7.58 612.64-7.1 613.19-7.1L613.19-7.1Q613.89-7.1 614.79-7.88 615.69-8.65 616.49-10.45 617.29-12.25 617.54-15.3L617.54-15.3Q617.64-16.25 617.69-17.73 617.74-19.2 617.79-20.48 617.84-21.75 617.84-22.05L617.84-22.05Q617.84-23.85 619.16-24.58 620.49-25.3 622.09-25.3L622.09-25.3Q623.49-25.3 624.74-24.75 625.99-24.2 626.44-22.9L626.44-22.9 626.54-22.6Q626.09-22.2 625.76-19.9 625.44-17.6 624.99-13.75L624.99-13.75Q624.69-11.25 624.24-8.1 623.79-4.95 623.01-1.78 622.24 1.4 620.96 4.08 619.69 6.75 617.79 8.38 615.89 10 613.19 10ZM611.99 4.25L611.99 4.25Q613.54 4.25 614.76 1.43 615.99-1.4 616.69-6.6L616.69-6.6Q613.49-2.5 612.29-0.15 611.09 2.2 611.09 3.25L611.09 3.25Q611.09 4.25 611.99 4.25Z" opacity="1" transform="matrix(1,0,0,1,0,0)" fill="#69a2c9" class="slogan-text-1" data-fill-palette-color="secondary" id="text-1"></path></svg></g></svg></g></svg></g></svg></g><g><svg viewBox="0 0 164.58785625599998 165.04787049422706" height="165.04787049422706" width="164.58785625599998"><g><svg xmlns="http://www.w3.org/2000/svg" xmlns:xlink="http://www.w3.org/1999/xlink" version="1.1" x="0" y="0" viewBox="1.3569266054381648 1.3159999999999998 29.286146789123674 29.368000000000002" enable-background="new 0 0 32 32" xml:space="preserve" height="165.04787049422706" width="164.58785625599998" class="icon-icon-0" data-fill-palette-color="accent" id="icon-0"><path d="M30.171 7.314c-0.025-0.274-0.215-0.498-0.421-0.498s-0.375-0.169-0.375-0.375-0.222-0.337-0.493-0.292L27.41 6.399C27.114 4.607 26.67 3.486 26 2.816c-2-2-18-2-20 0C5.331 3.486 4.886 4.607 4.589 6.399L3.118 6.15C2.847 6.104 2.625 6.235 2.625 6.441S2.456 6.816 2.25 6.816 1.854 7.041 1.829 7.314l-0.47 5.066c-0.025 0.274 0.179 0.498 0.454 0.498h1.062c0.275 0 0.521-0.224 0.546-0.498l0.393-4.232c0.025-0.274 0.268-0.46 0.54-0.415l0.054 0.009C4.007 11.396 4 29.684 4 29.684c0 0.553 0.14 1 0.313 1h2.562c0.173 0 0.313-0.447 0.313-1v-1.893c4.643 0.698 12.982 0.698 17.625 0v1.889c0 0.553 0.141 1 0.312 1h2.562c0.172 0 0.312-0.447 0.312-1 0 0-0.007-18.283-0.407-21.937l0.054-0.009c0.271-0.046 0.514 0.141 0.539 0.415l0.394 4.232c0.025 0.274 0.271 0.498 0.546 0.498h1.062c0.275 0 0.479-0.224 0.454-0.498L30.171 7.314zM7.125 23.371c-1.001 0-1.812-0.812-1.812-1.812s0.812-1.812 1.812-1.812 1.812 0.812 1.812 1.812S8.126 23.371 7.125 23.371zM5.042 15.977C5.143 8.542 5.491 4.739 6.707 3.523 7.194 3.037 10.484 2.316 16 2.316c5.516 0 8.806 0.72 9.293 1.207 1.217 1.216 1.564 5.02 1.665 12.455-1.175 0.473-4.904 1.025-10.958 1.025C9.951 17.004 6.222 16.452 5.042 15.977zM23.062 21.559c0-1.001 0.812-1.812 1.812-1.812s1.812 0.812 1.812 1.812-0.812 1.812-1.812 1.812S23.062 22.56 23.062 21.559z" fill="#2e455c" data-fill-palette-color="accent"></path></svg></g></svg></g></svg></g><defs></defs></svg><rect width="395.52" height="111.22043944314834" fill="none" stroke="none" visibility="hidden"></rect></g></svg></g></svg>